<svg width="24" height="24" viewBox="0 0 24 24" fill="none" xmlns="http://www.w3.org/2000/svg">
<path fill-rule="evenodd" clip-rule="evenodd" d="M4.86197 5.72072C3.31568 7.45538 2.66667 9.48187 2.66667 10.6667V13.3333H5.33333C6.3942 13.3333 7.41162 13.7548 8.16176 14.5049C8.91191 15.2551 9.33333 16.2725 9.33333 17.3333V20C9.33333 21.0609 8.91191 22.0783 8.16176 22.8284C7.41162 23.5786 6.3942 24 5.33333 24H4C2.93913 24 1.92172 23.5786 1.17157 22.8284C0.421427 22.0783 0 21.0609 0 20V10.6667C0 8.7408 0.950986 6.10062 2.87136 3.94628C4.83596 1.74234 7.855 0 12 0C16.145 0 19.164 1.74234 21.1286 3.94628C23.049 6.10062 24 8.7408 24 10.6667V20C24 21.0609 23.5786 22.0783 22.8284 22.8284C22.0783 23.5786 21.0609 24 20 24H18.6667C17.6058 24 16.5884 23.5786 15.8382 22.8284C15.0881 22.0783 14.6667 21.0609 14.6667 20V17.3333C14.6667 16.2725 15.0881 15.2551 15.8382 14.5049C16.5884 13.7548 17.6058 13.3333 18.6667 13.3333H21.3333V10.6667C21.3333 9.48187 20.6843 7.45538 19.138 5.72072C17.636 4.03566 15.3217 2.66667 12 2.66667C8.67833 2.66667 6.36404 4.03566 4.86197 5.72072ZM21.3333 16H18.6667C18.313 16 17.9739 16.1405 17.7239 16.3905C17.4738 16.6406 17.3333 16.9797 17.3333 17.3333V20C17.3333 20.3536 17.4738 20.6928 17.7239 20.9428C17.9739 21.1929 18.313 21.3333 18.6667 21.3333H20C20.3536 21.3333 20.6928 21.1929 20.9428 20.9428C21.1929 20.6928 21.3333 20.3536 21.3333 20V16ZM2.66667 16V20C2.66667 20.3536 2.80714 20.6928 3.05719 20.9428C3.30724 21.1929 3.64638 21.3333 4 21.3333H5.33333C5.68695 21.3333 6.02609 21.1929 6.27614 20.9428C6.52619 20.6928 6.66667 20.3536 6.66667 20V17.3333C6.66667 16.9797 6.52619 16.6406 6.27614 16.3905C6.02609 16.1405 5.68695 16 5.33333 16H2.66667Z" fill="#999999"/>
</svg>
