<svg width="24" height="21" viewBox="0 0 24 21" fill="none" xmlns="http://www.w3.org/2000/svg">
<path fill-rule="evenodd" clip-rule="evenodd" d="M1.60001 1.60001C4.84214 1.61484 7.10204 2.02243 8.62206 2.74866C10.0618 3.43655 10.8485 4.41253 11.2 5.70323V18.12C9.3808 16.7766 6.58494 16.0016 1.61497 16C1.60815 15.9823 1.60001 15.9513 1.60001 15.9035V1.60001ZM12.8 18.1188C14.6226 16.7707 17.4173 16 22.4 16V1.60001C19.1579 1.61484 16.898 2.02243 15.3779 2.74866C13.9382 3.43655 13.1515 4.41253 12.8 5.70323V18.1188ZM12 3.5854C11.3927 2.63851 10.5052 1.87514 9.31182 1.30497C7.47702 0.428349 4.93803 0.0149664 1.60359 1.35022e-05L1.60302 1.13564e-05C1.39229 -0.00078334 1.18348 0.0401378 0.988637 0.120415C0.793793 0.200692 0.616763 0.318738 0.46775 0.46775C0.318739 0.616762 0.200692 0.793792 0.120415 0.988637C0.0403611 1.18294 -0.00055484 1.39112 5.68199e-06 1.60126V15.9035C5.68199e-06 16.3108 0.126186 16.7274 0.405632 17.0556C0.69517 17.3957 1.11745 17.6 1.60001 17.6C7.90481 17.6 10.0814 18.8808 11.3751 20.4995C11.5268 20.6894 11.7567 20.7999 11.9998 20.8C12.2429 20.8001 12.4729 20.6896 12.6247 20.4997C13.9272 18.8715 16.0948 17.6 22.4 17.6C22.8243 17.6 23.2313 17.4314 23.5314 17.1314C23.8314 16.8313 24 16.4243 24 16V1.6011C24.0005 1.39101 23.9596 1.18289 23.8796 0.988637C23.7993 0.793794 23.6813 0.616763 23.5323 0.46775C23.3832 0.318737 23.2062 0.200691 23.0114 0.120415C22.8165 0.040138 22.6077 -0.00078334 22.397 1.13564e-05L22.3964 1.37406e-05C19.062 0.0149664 16.523 0.428349 14.6882 1.30497C13.4948 1.87514 12.6073 2.63851 12 3.5854Z" fill="#999999"/>
</svg>
