<svg width="26" height="24" viewBox="0 0 26 24" fill="none" xmlns="http://www.w3.org/2000/svg">
<path d="M1 15.4H16.6C17.7184 15.4 18.2776 15.4 18.718 15.5824C19.0094 15.703 19.2741 15.8799 19.4971 16.1029C19.7201 16.3259 19.897 16.5906 20.0176 16.882C20.2 17.3224 20.2 17.8816 20.2 19C20.2 20.1184 20.2 20.6776 20.0176 21.118C19.897 21.4094 19.7201 21.6741 19.4971 21.8971C19.2741 22.1201 19.0094 22.297 18.718 22.4176C18.2776 22.6 17.7184 22.6 16.6 22.6H1M1 1H16.6C17.7184 1 18.2776 1 18.718 1.1824C19.0094 1.30302 19.2741 1.47987 19.4971 1.70287C19.7201 1.92586 19.897 2.19062 20.0176 2.482C20.2 2.9224 20.2 3.4816 20.2 4.6C20.2 5.7184 20.2 6.2776 20.0176 6.718C19.897 7.00938 19.7201 7.27414 19.4971 7.49713C19.2741 7.72013 19.0094 7.89698 18.718 8.0176C18.2776 8.2 17.7184 8.2 16.6 8.2H1M25 8.2H9.4C8.2816 8.2 7.7224 8.2 7.282 8.3824C6.99062 8.50302 6.72586 8.67988 6.50287 8.90287C6.27987 9.12586 6.10302 9.39062 5.9824 9.682C5.8 10.1224 5.8 10.6816 5.8 11.8C5.8 12.9184 5.8 13.4776 5.9824 13.918C6.10302 14.2094 6.27987 14.4741 6.50287 14.6971C6.72586 14.9201 6.99062 15.097 7.282 15.2176C7.7224 15.4 8.2816 15.4 9.4 15.4H25" stroke="#999999" stroke-width="1.5" stroke-linecap="round" stroke-linejoin="round"/>
</svg>
