<svg width="24" height="24" viewBox="0 0 24 24" fill="none" xmlns="http://www.w3.org/2000/svg">
<path fill-rule="evenodd" clip-rule="evenodd" d="M14.6804 0.905923L14.6794 0.905151C13.1806 -0.298676 10.8149 -0.30097 9.3245 0.893847L1.5922 7.0864L1.59082 7.08749C1.01099 7.54891 0.577595 8.22542 0.313904 8.91659C0.0503831 9.60731 -0.0769991 10.4001 0.0489246 11.1299L0.049406 11.1327L1.53323 20.0134C1.86913 22.0008 3.73568 23.5794 5.75162 23.5794H18.2521C20.2577 23.5794 22.1343 21.9891 22.4704 20.0144L22.4708 20.0119L23.9552 11.1276L23.9557 11.1245C24.0745 10.3969 23.9445 9.60607 23.6815 8.91659C23.4185 8.22732 22.989 7.5513 22.4157 7.08969L14.6804 0.905923ZM10.3715 2.20028C11.2469 1.49828 12.742 1.49584 13.6316 2.21086L13.6333 2.21223L21.3657 8.3937L21.3667 8.3945C21.6525 8.62502 21.9312 9.02568 22.1173 9.51336C22.3032 10.0007 22.3631 10.4872 22.3037 10.8532L22.3034 10.8547L20.8199 19.7335L20.8197 19.7347C20.6195 20.9069 19.4383 21.9053 18.2521 21.9053H5.75162C4.55334 21.9053 3.38425 20.9171 3.1841 19.735L1.69982 10.8517L1.69895 10.8465C1.63594 10.4833 1.69273 9.99927 1.87811 9.51336C2.06345 9.02756 2.34389 8.62755 2.63394 8.39699L2.63634 8.39508L10.3715 2.20028ZM12.8389 15.1416C12.8389 14.6793 12.4642 14.3045 12.0019 14.3045C11.5395 14.3045 11.1648 14.6793 11.1648 15.1416V18.49C11.1648 18.9523 11.5395 19.3271 12.0019 19.3271C12.4642 19.3271 12.8389 18.9523 12.8389 18.49V15.1416Z" fill="#999999"/>
</svg>
