2<svg width="88" height="88" viewBox="0 0 88 88" fill="none" xmlns="http://www.w3.org/2000/svg">
<path d="M44.3424 1.77407C31.4393 5.08256 19.9747 9.48428 10.826 14.634C9.14298 15.5834 8.92721 15.7416 8.63951 16.3314C8.19359 17.2233 7.90589 18.7049 7.8052 20.6324L7.70451 22.2867L11.8617 25.4369C19.0397 30.9031 23.988 34.7582 23.988 34.8877C23.988 35.2185 14.4366 43.5329 11.4014 45.8345C10.265 46.6975 8.68267 47.7045 7.56066 48.2655C6.78389 48.6682 6.46742 48.7402 5.3598 48.7977C3.2884 48.8984 2.42532 48.5244 1.83554 47.3305C1.10192 45.7913 1.15946 44.1371 2.12324 40.0518C2.42532 38.7428 2.71301 37.3475 2.77055 36.9591L2.85686 36.2399L2.39655 37.1029C1.67731 38.4407 0.713536 40.843 0.382688 42.0513C0.0230699 43.4178 -0.106393 45.5899 0.0949935 46.7982C0.325149 48.1792 0.871768 49.1861 2.03693 50.3369C2.75617 51.0561 3.41786 51.5452 4.23779 51.9623C4.89949 52.3076 5.43172 52.6097 5.43172 52.6384C5.43172 52.6816 5.18718 53.3433 4.87072 54.1057C2.66986 59.6869 2.49724 63.0961 4.28095 65.7717C5.11526 67.0088 6.40988 68.1595 7.37366 68.5192C8.33744 68.8788 9.94852 68.9219 10.6965 68.6055C10.9698 68.4904 11.7898 67.9438 12.509 67.3828C13.2282 66.8361 13.8612 66.3758 13.9187 66.3758C13.9906 66.3758 14.0769 66.8793 14.1201 67.4835C14.4222 71.5256 14.6379 72.59 15.5873 74.5464C16.7381 76.9342 18.68 78.5022 21.3556 79.1926C22.7941 79.5666 26.7067 79.5954 29.0802 79.2645C31.166 78.9625 31.0365 78.9481 31.0365 79.581C31.0365 80.4441 31.5544 82.3141 32.1154 83.4505C32.7339 84.6876 34.0429 86.0541 35.1505 86.6007C36.2294 87.133 37.5672 87.3344 38.5453 87.1186C40.1133 86.759 41.6093 85.4212 45.7377 80.6886C48.3989 77.6247 50.3552 75.6827 51.7649 74.6758C52.2971 74.3018 52.7574 73.9997 52.815 73.9997C52.8581 73.9997 52.9013 75.5389 52.9157 77.4089C52.9157 81.2209 53.002 81.825 53.376 80.6886C54.1096 78.4158 54.4692 76.2006 54.4836 73.9134V72.8777L55.5912 72.1873C56.9578 71.3386 59.3313 70.1015 60.3813 69.6843C60.8129 69.5117 62.1651 69.1089 63.3877 68.8069C65.8619 68.1739 65.6749 68.1452 66.2791 69.2672C66.7394 70.1446 68.0772 71.7126 68.7245 72.1441C69.0697 72.3743 69.6739 72.662 70.0623 72.777C71.6158 73.2373 74.2194 72.9209 75.9312 72.0434C76.895 71.5543 78.2184 70.2453 78.7075 69.2815C79.5274 67.6561 80.0165 64.3332 79.7863 61.8447C79.7144 61.0535 79.139 56.1339 78.5061 50.9123C76.0175 30.2558 75.3415 24.0416 75.0969 19.8413L75.0106 18.259L75.7011 18.8343C76.0895 19.1508 76.3628 19.309 76.3196 19.194C76.2765 19.0789 75.7298 17.813 75.1257 16.3889C74.5071 14.9649 73.7591 13.1668 73.4714 12.4044L72.9392 10.9947L72.4933 12.0448C72.2344 12.6201 72.033 13.325 72.033 13.6271C72.033 14.3175 72.0186 14.2312 74.6222 34.8733C75.8018 44.2521 76.9669 53.5734 77.2115 55.5873C77.7868 60.5644 78.3766 66.9944 78.2472 67.1238C78.017 67.3396 75.1113 68.2602 73.9461 68.476C72.148 68.8069 69.8896 68.7205 68.9834 68.2602C68.595 68.0876 68.1635 67.7424 67.9909 67.4978L67.6744 67.0663L68.408 66.3327C69.9328 64.7504 70.8103 63.2831 71.3137 61.4563C71.659 60.1904 71.6877 58.3204 71.3857 57.0977C70.8534 55.0119 69.4293 52.9693 68.3505 52.7679C67.5018 52.6097 66.4805 52.7823 65.8763 53.185C65.2146 53.6166 64.4234 54.753 63.9775 55.9469C63.4597 57.3278 63.4165 59.8164 63.8912 62.5495C64.0926 63.729 64.2652 64.8079 64.2652 64.9374C64.2652 65.11 63.8049 65.297 62.2945 65.7285C59.9498 66.3758 57.8496 67.1382 56.1235 67.9438C55.433 68.2746 54.8432 68.5335 54.8001 68.5335C54.7569 68.5335 54.7713 66.8361 54.8288 64.7647C54.9151 61.37 54.8288 58.0183 54.5411 54.8537L54.4548 53.9043L55.1597 53.7892C56.5982 53.5878 59.6765 51.8185 60.4677 50.7396C61.2588 49.6608 61.7623 48.3374 61.9493 46.8702C62.0931 45.6331 61.9637 44.4248 60.0937 30.414C58.5976 19.122 57.8352 12.8215 57.6914 10.2323L57.6051 8.66435L58.4969 9.12466C59.0004 9.3692 59.432 9.54182 59.4751 9.51305C59.5758 9.39797 55.7351 1.73092 55.5481 1.67338C55.4474 1.64461 55.2028 2.16246 54.9583 2.89608L54.5268 4.16193L55.0878 7.68619C56.2242 14.9217 60.0505 43.9357 60.1943 46.4674L60.2807 47.9059L59.6477 48.4525C58.2668 49.632 55.7638 50.4807 54.6275 50.1355C53.9514 49.9341 53.8794 49.7183 53.6205 47.388C53.5342 46.5537 52.9444 41.7924 52.3259 36.8152C51.0744 26.7747 50.7867 24.2718 50.9306 24.1423C50.9737 24.0992 51.3046 24.2718 51.6642 24.5307C52.0238 24.7896 52.3547 24.9622 52.3834 24.9335C52.441 24.8759 49.003 17.1226 48.8592 16.9643C48.816 16.9356 48.5859 17.2808 48.327 17.7411L47.881 18.561L48.1687 21.3661C48.3126 22.9052 48.9311 28.0406 49.5209 32.7875C50.1107 37.5345 50.758 43.0007 50.9594 44.9426C51.1607 46.8845 51.3477 48.6826 51.3765 48.9272C51.434 49.3299 51.4053 49.4019 51.1607 49.4019C50.4415 49.4019 48.8736 48.2655 45.4932 45.3022C42.3573 42.5691 39.7968 40.3827 36.8623 37.966C33.0216 34.8014 33.0504 34.8302 33.0504 34.6432C33.0504 34.2116 35.3951 33.8088 37.2651 33.9095C39.5523 34.0246 41.6668 34.8158 43.4793 36.2255C44.2129 36.8009 44.3568 36.8728 44.5006 36.6858C44.9034 36.1392 44.8315 33.291 44.3999 32.7731C44.3136 32.6581 43.8389 32.2841 43.3498 31.9388C42.8608 31.5936 41.9258 30.7449 41.2928 30.0688C40.329 29.0619 39.9838 28.5584 39.3221 27.2206C37.8693 24.2718 36.6609 18.6042 37.5096 18.7193C37.6247 18.7337 37.9124 18.7912 38.1426 18.8487C38.5166 18.935 38.5453 18.9207 38.4446 18.6042C38.2001 17.8418 35.7979 13.0085 35.654 13.0085C35.4239 13.0085 35.1074 13.5695 34.8341 14.5189C34.6327 15.1519 34.5752 15.8279 34.5752 17.1082C34.5895 19.1508 34.9204 20.8626 36.2006 25.5232C37.2363 29.3496 37.4233 30.112 37.3083 30.227C37.2651 30.2702 36.4308 30.3565 35.467 30.414C33.4388 30.5435 32.4174 30.7593 30.3317 31.4929C29.1809 31.9101 28.7781 31.9964 28.5336 31.8813C28.3753 31.8094 26.1601 30.299 23.6284 28.5296C21.0967 26.7603 17.0546 23.9265 14.6379 22.2579C12.2213 20.5749 10.0204 19.007 9.74714 18.7912L9.25806 18.374L9.89099 17.9569C11.013 17.252 16.4936 14.5333 18.6657 13.6271C22.5927 11.9728 34.9204 7.55672 40.5304 5.80179C43.019 5.02502 45.9103 4.52155 47.9673 4.52155C48.9743 4.52155 49.003 4.53593 49.4202 5.0394C50.0243 5.75864 50.1107 6.40595 49.751 7.15395C49.4777 7.71496 48.8736 8.4342 45.1335 12.6633C44.2992 13.6127 43.4074 14.6772 43.1484 15.0512C42.5155 15.9574 41.6956 17.6404 41.5949 18.2158L41.5086 18.6905L42.1271 17.9713C42.4724 17.5829 43.8245 16.0581 45.1192 14.5909C49.9093 9.16782 51.6354 6.31964 51.6642 3.73039C51.6786 2.92485 51.621 2.62277 51.3621 2.22C50.873 1.42884 50.0243 1.02607 48.7297 0.968529C47.7803 0.925369 47.2481 1.02607 44.3424 1.77407ZM28.8932 38.9586C30.9214 40.656 33.4532 43.1301 34.5752 44.5111C35.5246 45.6762 36.8479 47.9202 37.1644 48.8552L37.3946 49.5745L36.9918 50.006C35.8842 51.1712 34.6327 51.7178 31.0941 52.5665C27.426 53.444 20.7802 56.1915 18.1622 57.9032C16.81 58.7807 16.1483 59.3849 14.1057 61.6289C11.0705 64.9661 9.1286 66.3758 7.58943 66.3758C6.61127 66.3758 6.03588 66.0162 5.37418 65.0381C4.29533 63.3982 4.03641 61.557 4.5111 59.0252C4.81318 57.4142 5.60434 55.0263 6.26604 53.7892L6.79827 52.7823L8.76898 51.761C11.8761 50.1355 13.0412 49.2436 18.1766 44.4967C23.3982 39.6778 26.1026 37.4769 26.8074 37.4626C26.98 37.4626 27.8575 38.0811 28.8932 38.9586ZM35.0499 40.2963C37.2507 41.8643 38.8043 43.1877 43.1916 47.3017C47.4495 51.3007 49.0462 52.5377 51.1176 53.444C52.0814 53.8611 52.1964 53.9618 52.3259 54.4221C52.5561 55.314 52.7431 58.7951 52.8294 64.3044L52.9157 69.6268L52.2252 70.0583C50.0675 71.4105 47.2912 74.1724 44.8315 77.4089C42.7888 80.0845 41.2209 81.7243 39.7393 82.7025C38.3727 83.6087 37.7398 83.882 36.6753 84.0547C35.1362 84.2992 34.0717 83.767 33.4244 82.4436C33.1223 81.8538 32.3455 79.1638 32.3311 78.7323C32.3311 78.6892 32.9353 78.4015 33.6689 78.0994C37.0062 76.7184 39.6386 75.2081 42.7169 72.8777C46.2556 70.2166 47.6077 68.7349 48.3989 66.6923C48.7153 65.8868 48.7729 65.484 48.7873 64.2901C48.8016 62.679 48.5715 61.8303 47.5502 59.615C46.4713 57.2991 45.9966 56.1339 45.9966 55.7887C45.9966 55.3859 46.0685 55.3715 46.759 55.6592C47.4063 55.9325 47.7228 55.9325 47.7228 55.6736C47.7228 55.3284 43.7526 50.8403 43.4361 50.8403C43.206 50.8403 42.7457 51.8473 42.5299 52.8398C42.3285 53.7748 42.3429 53.8036 44.3424 58.1046C45.9103 61.4563 46.9892 63.9448 47.2769 64.8367C47.507 65.5271 47.3488 65.7861 46.0254 66.8937C43.7526 68.7925 40.4873 70.6337 36.8192 72.0434C34.5032 72.9497 32.9065 73.4819 32.8202 73.3956C32.7915 73.3524 33.1367 72.2016 33.6114 70.8207C34.0717 69.4398 34.5032 68.1164 34.5464 67.8862C34.6471 67.4259 32.101 72.1585 31.6119 73.3668L31.3098 74.1148L29.9864 74.4744C27.4547 75.1937 26.4046 75.3375 24.362 75.2512C22.8948 75.1937 22.2331 75.1074 21.3988 74.834C17.9752 73.7264 16.2922 72.1153 15.6449 69.3679C15.2421 67.6417 15.1126 65.8724 15.3572 65.1388C15.6161 64.3907 17.5293 62.492 19.1116 61.4563C21.3125 59.989 22.679 59.3992 27.9726 57.5868C33.3525 55.7455 35.2656 54.7961 36.8767 53.2138C37.9556 52.135 38.2289 51.4445 38.3296 49.4738C38.4734 46.6544 37.4089 44.0508 34.8772 41.03C33.7265 39.6346 33.7121 39.6203 33.9135 39.6203C34.0142 39.6203 34.5176 39.9223 35.0499 40.2963ZM67.5449 57.1984C68.5087 57.4429 69.6307 58.5793 69.9328 59.615C70.3356 60.9816 70.2636 61.298 69.3862 62.1323C68.5519 62.9379 66.6675 64.0024 66.4085 63.8441C66.1496 63.6859 65.416 61.9597 65.1139 60.7946C64.8118 59.5863 64.7687 58.4499 64.9988 57.7738C65.2434 57.0833 66.2215 56.8675 67.5449 57.1984Z" fill="white" fill-opacity="0.9"/>
<path d="M22.6502 45.6187C22.1179 46.453 21.6864 47.3592 21.6864 47.6038C21.6864 48.1216 23.9448 50.1211 24.5346 50.1211C24.7216 50.1211 25.0812 49.7903 25.5559 49.1861C25.9587 48.6682 26.3902 48.2511 26.5053 48.2511C26.606 48.2511 26.98 48.4956 27.3252 48.7833C29.1808 50.3944 29.2959 50.4663 29.6699 50.2649C30.1015 50.0348 31.1803 48.4237 31.1803 48.0065C31.1803 47.6182 28.5335 45.0433 28.1883 45.1152C28.0588 45.144 27.6129 45.6187 27.1957 46.1653C26.793 46.7119 26.3902 47.1866 26.3183 47.2154C26.2464 47.2298 25.5847 46.7695 24.8367 46.1797C24.0886 45.5755 23.3694 45.1008 23.24 45.0865C23.0961 45.0865 22.8372 45.331 22.6502 45.6187Z" fill="white" fill-opacity="0.9"/>
<path d="M32.2161 61.1254C31.5975 61.6433 30.8495 62.8516 30.9502 63.1824C31.0078 63.3263 31.5831 63.9736 32.2448 64.6209C33.7696 66.1169 33.9566 66.1457 34.8485 64.8942C35.8122 63.5708 35.8122 63.4701 34.906 62.5351C34.1868 61.8159 32.9065 60.7658 32.7195 60.7658C32.6764 60.7658 32.4462 60.924 32.2161 61.1254Z" fill="white" fill-opacity="0.9"/>
<path d="M63.7761 5.78741L63.2439 7.05327L63.8193 10.6494C64.6824 16.0006 65.1571 19.5248 66.351 29.1194C66.9408 33.9095 67.5881 38.8147 67.7895 40.023C67.9909 41.2313 68.1491 42.4397 68.1491 42.713C68.1491 43.5329 68.408 43.4178 68.6957 42.4684C69.2279 40.7567 69.3718 39.5052 69.343 36.8152C69.3286 34.4418 69.1992 33.3198 67.8758 23.1498C67.0846 17.065 66.4661 12.0591 66.4805 12.0304C66.5092 12.0016 66.8401 12.1886 67.2285 12.4188C67.6025 12.6633 67.9333 12.8359 67.9621 12.8072C68.0484 12.7208 64.5241 4.52156 64.4091 4.52156C64.3515 4.52156 64.0638 5.09695 63.7761 5.78741Z" fill="white" fill-opacity="0.9"/>
<path d="M60.856 16.9931C60.482 18.2158 60.4964 20.5174 60.8847 21.2797C61.4314 22.3586 62.4383 22.5168 62.8842 21.5818C63.3158 20.6612 63.0712 19.6399 62.5821 20.3304C62.2657 20.7907 61.8197 20.6612 61.4745 19.9851C61.2156 19.496 61.1724 19.1652 61.1868 17.7843C61.1868 16.9068 61.1724 16.1732 61.1437 16.1732C61.1293 16.1732 60.9998 16.5472 60.856 16.9931Z" fill="white" fill-opacity="0.9"/>
<path d="M28.0301 17.6548C27.3397 19.4529 27.5986 22.4737 28.4761 22.9484C28.8501 23.1498 29.3391 22.8333 29.6556 22.1716C30.0584 21.3229 29.9145 20.5749 29.4542 21.1359C29.2097 21.4236 28.6918 21.4092 28.4041 21.0927C28.0301 20.69 27.9726 20.1434 28.1596 18.7624C28.3466 17.439 28.2891 16.9787 28.0301 17.6548Z" fill="white" fill-opacity="0.9"/>
<path d="M80.5199 19.942C80.5199 19.9851 80.3617 20.7619 80.1747 21.6681C79.9014 22.9484 79.8438 23.4375 79.9445 23.9697C80.4768 26.7172 83.0804 45.7194 83.3825 49.071C83.5407 50.7109 83.814 54.005 83.9866 56.3785C84.1593 58.7519 84.3463 60.7946 84.4038 60.9096C84.4901 61.0679 84.6052 60.9384 84.8353 60.4206C85.6265 58.5793 85.6265 58.5218 85.6265 54.0769C85.6121 49.2149 85.497 47.9346 84.26 39.1168C83.4832 33.6218 82.6633 27.0768 82.7208 27.0193C82.7352 27.0049 83.1955 27.2494 83.7277 27.5659C84.26 27.8967 84.7347 28.1125 84.7778 28.0693C84.8785 27.9686 81.2248 20.7331 80.8076 20.2009C80.6494 19.9995 80.5199 19.8844 80.5199 19.942Z" fill="white" fill-opacity="0.9"/>
<path d="M6.98528 24.1998C5.01457 26.2137 3.43225 28.8749 3.13017 30.7017C2.9144 31.9676 3.00071 33.3485 3.37471 34.4418C3.67679 35.348 4.12272 35.6932 4.78441 35.535C5.67627 35.3048 7.86274 32.543 8.10728 31.3059C8.23675 30.6586 8.02097 30.7161 7.08597 31.5648C6.07904 32.4854 5.79134 32.4854 5.40296 31.6224C5.1728 31.0757 5.12965 30.7305 5.1728 29.7092C5.21596 28.6303 5.28788 28.3283 5.76257 27.3213C6.06465 26.6884 6.71197 25.5376 7.18666 24.7609C7.66136 23.9841 8.02097 23.3224 7.99221 23.2936C7.96344 23.2505 7.50313 23.6676 6.98528 24.1998Z" fill="white" fill-opacity="0.9"/>
<path d="M14.0913 31.3059C13.3145 33.4061 13.0412 36.0816 13.5303 37.0022C13.8468 37.592 14.3646 37.8509 14.8825 37.6639C15.3284 37.5057 15.7743 36.9447 15.8175 36.4556C15.8606 36.1248 15.8175 36.096 15.2708 36.1392C14.7098 36.1823 14.6667 36.1535 14.4078 35.6357C14.0625 34.9596 14.0625 33.8232 14.3934 32.0827C14.6811 30.5579 14.5228 30.1551 14.0913 31.3059Z" fill="white" fill-opacity="0.9"/>
<path d="M86.2883 35.8371C85.8999 37.2612 85.828 38.0235 85.8712 39.6778C85.9143 41.4183 85.9287 41.4903 86.3315 41.893C86.8925 42.4972 87.2377 42.5547 87.6549 42.1376C87.885 41.9074 88.0001 41.6197 88.0001 41.2889C88.0001 40.6847 87.7843 40.5121 87.4391 40.8286C87.1946 41.0443 87.1658 41.0156 86.8062 40.3683C86.3602 39.5483 86.3171 38.9873 86.4753 36.844C86.5904 35.2473 86.5329 34.9165 86.2883 35.8371Z" fill="white" fill-opacity="0.9"/>
<path d="M45.8241 37.8941C45.4501 38.1386 45.0041 38.5702 44.8459 38.8291C44.5582 39.3038 44.5438 39.347 44.7884 39.836C44.9178 40.1237 45.2487 40.5265 45.522 40.7567L46.0111 41.1594L45.1192 41.9362C44.2993 42.6411 44.2561 42.713 44.5438 42.8424C44.774 42.9431 45.0761 42.8281 46.0254 42.2814C46.6871 41.9074 47.6222 41.3177 48.1256 40.958C48.888 40.4114 49.0175 40.2676 49.0175 39.8792C49.0175 39.5196 48.9743 39.462 48.7729 39.5483C48.6291 39.5915 48.1256 39.7497 47.6509 39.8648C46.6871 40.1237 46.1405 40.0518 45.709 39.6203C45.4644 39.3757 45.4501 39.275 45.5795 39.0305C45.8097 38.599 46.6728 38.2537 46.9605 38.4839C47.1331 38.6421 47.1618 38.5846 47.1187 38.0955C47.0611 37.3619 46.7159 37.3043 45.8241 37.8941Z" fill="white" fill-opacity="0.9"/>
<path d="M64.5672 44.9714C64.1645 45.6187 63.8336 46.2229 63.8336 46.2948C63.8336 46.6112 66.5092 48.9703 66.8544 48.9703C66.9119 48.9703 67.3291 48.51 67.775 47.9634C68.221 47.4024 68.6813 46.9565 68.7963 46.9565C68.897 46.9565 69.4724 47.3736 70.0766 47.8915C71.6158 49.2005 71.6301 49.2005 72.2055 48.697C72.4644 48.4669 72.896 47.9059 73.1693 47.4599L73.6728 46.64L72.2199 45.2015C71.2561 44.2665 70.6664 43.7775 70.5081 43.8206C70.3643 43.8494 69.9184 44.2953 69.5156 44.8275C69.1272 45.3598 68.71 45.8201 68.6237 45.8632C68.523 45.9064 68.0915 45.6619 67.6743 45.3166C66.4948 44.3528 65.6749 43.7918 65.4735 43.7918C65.3728 43.7918 64.9556 44.3241 64.5672 44.9714Z" fill="white" fill-opacity="0.9"/>
<path d="M63.4884 74.6183C63.0425 75.0642 62.7261 76.1287 62.5966 77.5671C62.4384 79.3796 62.3952 79.4084 61.5897 78.1713C60.6834 76.776 59.806 75.841 59.0867 75.5101C58.5689 75.28 58.4682 75.2656 58.2812 75.4526C57.9216 75.8266 57.8784 76.6321 58.1949 77.337C58.4394 77.9124 58.5545 78.0131 59.3313 78.2864C60.4245 78.6891 61.115 79.3652 61.7479 80.7174C62.0212 81.2928 62.3089 81.7675 62.3808 81.7675C62.6541 81.7675 62.985 80.2427 63.0569 78.6028C63.1576 76.4164 63.2151 76.0424 63.5316 75.8697C63.7474 75.769 63.9344 75.8266 64.4235 76.143C65.0995 76.6034 65.3009 76.589 65.5455 76.0711C65.8332 75.4238 65.2002 74.5895 64.2365 74.3593C63.9344 74.2874 63.7618 74.345 63.4884 74.6183Z" fill="white" fill-opacity="0.9"/>
<path d="M26.8794 80.5016C26.6204 81.1777 26.4047 82.9326 26.5054 83.5224C26.7931 85.263 27.987 85.7952 28.7062 84.515C29.1953 83.6663 29.0946 82.8176 28.5911 83.4217C28.3178 83.7382 27.8719 83.6375 27.5267 83.1628C27.2821 82.8176 27.239 82.5874 27.2678 81.4798C27.2965 80.1995 27.1383 79.8112 26.8794 80.5016Z" fill="white" fill-opacity="0.9"/>
</svg>
