<svg width="22" height="24" viewBox="0 0 22 24" fill="none" xmlns="http://www.w3.org/2000/svg">
<path fill-rule="evenodd" clip-rule="evenodd" d="M11 7.75359C9.86272 7.75359 8.77202 8.20096 7.96784 8.99728C7.16367 9.7936 6.71189 10.8737 6.71189 11.9998C6.71189 13.126 7.16367 14.206 7.96784 15.0024C8.77202 15.7987 9.86272 16.2461 11 16.2461C12.1373 16.2461 13.228 15.7987 14.0322 15.0024C14.8363 14.206 15.2881 13.126 15.2881 11.9998C15.2881 10.8737 14.8363 9.7936 14.0322 8.99728C13.228 8.20096 12.1373 7.75359 11 7.75359ZM9.28615 10.3027C9.74069 9.85261 10.3572 9.59974 11 9.59974C11.6428 9.59974 12.2593 9.85261 12.7139 10.3027C13.1684 10.7528 13.4238 11.3633 13.4238 11.9998C13.4238 12.6364 13.1684 13.2468 12.7139 13.6969C12.2593 14.147 11.6428 14.3999 11 14.3999C10.3572 14.3999 9.74069 14.147 9.28615 13.6969C8.83161 13.2468 8.57625 12.6364 8.57625 11.9998C8.57625 11.3633 8.83161 10.7528 9.28615 10.3027Z" fill="#999999"/>
<path fill-rule="evenodd" clip-rule="evenodd" d="M20.3197 4.85744C20.383 4.89441 20.4406 4.93793 20.4919 4.98672C20.9214 5.27408 21.2804 5.65485 21.5407 6.10122C21.8441 6.62141 22.0026 7.21201 22 7.81268V15.8791C22 17.1047 21.3278 18.231 20.2484 18.831L12.7199 23.5469C12.7036 23.5572 12.6869 23.5669 12.67 23.5761C12.1582 23.8542 11.5838 24 11 24C10.4162 24 9.8418 23.8542 9.32999 23.5761C9.31305 23.5669 9.29641 23.5572 9.28008 23.5469L1.75192 18.8312C1.22709 18.5401 0.78873 18.1171 0.481143 17.6047C0.168191 17.0834 0.00204831 16.4886 5.1673e-06 15.8821L0 15.8791V7.80932C0 6.578 0.678266 5.4487 1.76527 4.85092L9.30496 0.448714C9.31269 0.444202 9.32048 0.4398 9.32834 0.435511C9.85159 0.149827 10.4394 0 11.0369 0C11.6344 0 12.2222 0.149827 12.7455 0.435511C12.7533 0.4398 12.7611 0.444202 12.7688 0.448714L20.3197 4.85744ZM2.70104 6.44773L10.239 2.04652C10.4839 1.91505 10.7582 1.84615 11.0369 1.84615C11.3156 1.84615 11.5899 1.91505 11.8348 2.04652L19.1848 6.33798C19.2339 6.38179 19.2882 6.42093 19.3474 6.45437C19.588 6.59026 19.7877 6.78702 19.9262 7.02449C20.0647 7.26197 20.137 7.53163 20.1356 7.80587L20.1356 7.81042V15.8791C20.1356 16.4355 19.8279 16.9534 19.3234 17.228C19.3066 17.2371 19.2902 17.2467 19.274 17.2568L11.7505 21.9697C11.5193 22.0906 11.2617 22.1538 11 22.1538C10.7383 22.1538 10.4807 22.0906 10.2495 21.9697L2.72592 17.2568C2.70949 17.2465 2.69273 17.2367 2.67568 17.2275C2.43083 17.0945 2.22642 16.8991 2.08373 16.6614C1.94127 16.4241 1.86554 16.1534 1.86436 15.8773V7.80932C1.86436 7.25335 2.17169 6.73633 2.67659 6.46152C2.68481 6.45705 2.69296 6.45245 2.70104 6.44773Z" fill="#999999"/>
</svg>
